<svg width="120" height="167" viewBox="0 0 120 167" fill="none" xmlns="http://www.w3.org/2000/svg">
<g id="Frame">
<rect width="119.383" height="166.756" rx="16" fill="#F5F2F1"/>
<g id="legende">
<g id="lebensmittel">
<g id="Frame 18">
<rect width="77.5674" height="13" transform="translate(20.7925 46.1101)" fill="#F5F2F1"/>
<path id="Vector" d="M22.9198 57.1202C22.7098 57.1202 22.5198 57.0602 22.3498 56.9302C22.1798 56.8002 22.0699 56.6302 22.0099 56.4302L20.8099 52.0702C20.7699 51.9202 20.7999 51.7802 20.8899 51.6602C20.9799 51.5402 21.0999 51.4702 21.2599 51.4702H23.4999L25.5699 48.3802C25.6099 48.3202 25.6598 48.2702 25.7298 48.2302C25.7998 48.1902 25.8799 48.1702 25.9499 48.1702C26.0199 48.1702 26.0998 48.1902 26.1698 48.2302C26.2398 48.2702 26.2999 48.3202 26.3299 48.3802L28.3998 51.4702H30.6598C30.8198 51.4702 30.9398 51.5302 31.0298 51.6602C31.1198 51.7902 31.1498 51.9202 31.1098 52.0702L29.9098 56.4302C29.8498 56.6302 29.7299 56.8002 29.5699 56.9302C29.4099 57.0602 29.2199 57.1202 28.9999 57.1202H22.8998H22.9198ZM22.9098 56.1802H29.0398L30.0799 52.4102H21.8799L22.9198 56.1802H22.9098ZM25.9798 55.2302C26.2398 55.2302 26.4598 55.1402 26.6498 54.9502C26.8398 54.7602 26.9299 54.5402 26.9299 54.2802C26.9299 54.0202 26.8398 53.8002 26.6498 53.6102C26.4598 53.4202 26.2398 53.3302 25.9798 53.3302C25.7198 53.3302 25.4999 53.4202 25.3099 53.6102C25.1199 53.8002 25.0298 54.0202 25.0298 54.2802C25.0298 54.5402 25.1199 54.7602 25.3099 54.9502C25.4999 55.1402 25.7198 55.2302 25.9798 55.2302ZM24.6399 51.4602H27.2898L25.9598 49.4802L24.6399 51.4602Z" fill="#1C0B05"/>
<path id="Lebensmittel" d="M38.1739 48.2451H39.1639V55.2301H43.2889V56.1101H38.1739V48.2451ZM46.2189 56.2751C45.6469 56.2751 45.1556 56.1468 44.7449 55.8901C44.3342 55.6334 44.0226 55.2814 43.8099 54.8341C43.5972 54.3794 43.4909 53.8661 43.4909 53.2941C43.4909 52.7001 43.6009 52.1794 43.8209 51.7321C44.0482 51.2848 44.3672 50.9401 44.7779 50.6981C45.1886 50.4561 45.6689 50.3351 46.2189 50.3351C46.7542 50.3351 47.2162 50.4524 47.6049 50.6871C48.0009 50.9144 48.3016 51.2371 48.5069 51.6551C48.7122 52.0658 48.8149 52.5461 48.8149 53.0961C48.8149 53.3308 48.8112 53.4774 48.8039 53.5361H44.4149C44.4296 54.0788 44.5909 54.5444 44.8989 54.9331C45.2069 55.3218 45.6506 55.5161 46.2299 55.5161C46.7139 55.5161 47.0879 55.3951 47.3519 55.1531C47.6159 54.9111 47.7809 54.6544 47.8469 54.3831H48.7379C48.5839 54.9478 48.2942 55.4061 47.8689 55.7581C47.4509 56.1028 46.9009 56.2751 46.2189 56.2751ZM47.8799 52.7661C47.8799 52.4581 47.8102 52.1758 47.6709 51.9191C47.5316 51.6624 47.3299 51.4608 47.0659 51.3141C46.8092 51.1674 46.5122 51.0941 46.1749 51.0941C45.6909 51.0941 45.2839 51.2518 44.9539 51.5671C44.6239 51.8751 44.4442 52.2748 44.4149 52.7661H47.8799ZM52.444 56.2641C51.674 56.2641 51.0874 55.9708 50.684 55.3841H50.662V56.1101H49.782V48.2451H50.662V51.1931H50.684C51.1167 50.6284 51.7034 50.3461 52.444 50.3461C52.9134 50.3461 53.3387 50.4671 53.72 50.7091C54.1087 50.9438 54.413 51.2848 54.633 51.7321C54.8604 52.1794 54.974 52.7038 54.974 53.3051C54.974 53.9064 54.8604 54.4308 54.633 54.8781C54.413 55.3254 54.1087 55.6701 53.72 55.9121C53.3387 56.1468 52.9134 56.2641 52.444 56.2641ZM50.662 53.3051C50.662 53.9651 50.8124 54.4968 51.113 54.9001C51.421 55.2961 51.8354 55.4941 52.356 55.4941C52.7227 55.4941 53.0344 55.3914 53.291 55.1861C53.5477 54.9808 53.7384 54.7131 53.863 54.3831C53.9877 54.0458 54.05 53.6864 54.05 53.3051C54.05 52.9238 53.9877 52.5681 53.863 52.2381C53.7384 51.9008 53.5477 51.6294 53.291 51.4241C53.0344 51.2188 52.7227 51.1161 52.356 51.1161C51.8354 51.1161 51.421 51.3178 51.113 51.7211C50.8124 52.1171 50.662 52.6451 50.662 53.3051ZM58.3791 56.2751C57.8071 56.2751 57.3157 56.1468 56.9051 55.8901C56.4944 55.6334 56.1827 55.2814 55.9701 54.8341C55.7574 54.3794 55.6511 53.8661 55.6511 53.2941C55.6511 52.7001 55.7611 52.1794 55.9811 51.7321C56.2084 51.2848 56.5274 50.9401 56.9381 50.6981C57.3487 50.4561 57.8291 50.3351 58.3791 50.3351C58.9144 50.3351 59.3764 50.4524 59.7651 50.6871C60.1611 50.9144 60.4617 51.2371 60.6671 51.6551C60.8724 52.0658 60.9751 52.5461 60.9751 53.0961C60.9751 53.3308 60.9714 53.4774 60.9641 53.5361H56.5751C56.5897 54.0788 56.7511 54.5444 57.0591 54.9331C57.3671 55.3218 57.8107 55.5161 58.3901 55.5161C58.8741 55.5161 59.2481 55.3951 59.5121 55.1531C59.7761 54.9111 59.9411 54.6544 60.0071 54.3831H60.8981C60.7441 54.9478 60.4544 55.4061 60.0291 55.7581C59.6111 56.1028 59.0611 56.2751 58.3791 56.2751ZM60.0401 52.7661C60.0401 52.4581 59.9704 52.1758 59.8311 51.9191C59.6917 51.6624 59.4901 51.4608 59.2261 51.3141C58.9694 51.1674 58.6724 51.0941 58.3351 51.0941C57.8511 51.0941 57.4441 51.2518 57.1141 51.5671C56.7841 51.8751 56.6044 52.2748 56.5751 52.7661H60.0401ZM65.6932 52.4141C65.6932 52.0254 65.5942 51.7138 65.3962 51.4791C65.1982 51.2371 64.8902 51.1161 64.4722 51.1161C63.9809 51.1161 63.5812 51.2554 63.2732 51.5341C62.9725 51.8128 62.8222 52.1721 62.8222 52.6121V56.1101H61.9422V50.5001H62.8222V51.1711H62.8442C63.0202 50.9364 63.2622 50.7421 63.5702 50.5881C63.8782 50.4268 64.2522 50.3461 64.6922 50.3461C65.2422 50.3461 65.6932 50.5038 66.0452 50.8191C66.3972 51.1271 66.5732 51.5854 66.5732 52.1941V56.1101H65.6932V52.4141ZM69.9304 56.2641C69.1458 56.2641 68.5334 56.0771 68.0934 55.7031C67.6534 55.3291 67.4261 54.8414 67.4114 54.2401H68.3354C68.3574 54.6214 68.4931 54.9258 68.7424 55.1531C68.9918 55.3804 69.3878 55.4941 69.9304 55.4941C70.4218 55.4941 70.7664 55.4061 70.9644 55.2301C71.1624 55.0468 71.2614 54.8268 71.2614 54.5701C71.2614 54.3574 71.2028 54.1888 71.0854 54.0641C70.9681 53.9394 70.8251 53.8478 70.6564 53.7891C70.4951 53.7304 70.2714 53.6718 69.9854 53.6131L69.7654 53.5691C69.3181 53.4664 68.9514 53.3638 68.6654 53.2611C68.3868 53.1584 68.1448 53.0008 67.9394 52.7881C67.7341 52.5681 67.6314 52.2784 67.6314 51.9191C67.6314 51.4424 67.8111 51.0611 68.1704 50.7751C68.5371 50.4891 69.0394 50.3461 69.6774 50.3461C70.3741 50.3461 70.9168 50.5111 71.3054 50.8411C71.7014 51.1711 71.9214 51.5928 71.9654 52.1061H71.0414C70.9828 51.8201 70.8581 51.5854 70.6674 51.4021C70.4768 51.2114 70.1504 51.1161 69.6884 51.1161C69.3071 51.1161 69.0211 51.1858 68.8304 51.3251C68.6471 51.4644 68.5554 51.6514 68.5554 51.8861C68.5554 52.0621 68.6068 52.2051 68.7094 52.3151C68.8194 52.4178 68.9551 52.4984 69.1164 52.5571C69.2778 52.6084 69.5014 52.6634 69.7874 52.7221C69.8461 52.7294 69.9341 52.7478 70.0514 52.7771C70.4914 52.8798 70.8544 52.9861 71.1404 53.0961C71.4338 53.2061 71.6794 53.3784 71.8774 53.6131C72.0828 53.8404 72.1854 54.1484 72.1854 54.5371C72.1854 55.0724 71.9874 55.4941 71.5914 55.8021C71.1954 56.1101 70.6418 56.2641 69.9304 56.2641ZM76.4041 52.4141C76.4041 51.9961 76.3344 51.6771 76.1951 51.4571C76.0558 51.2298 75.7844 51.1161 75.3811 51.1161C74.9484 51.1161 74.6001 51.2554 74.3361 51.5341C74.0794 51.8128 73.9511 52.1721 73.9511 52.6121V56.1101H73.0711V50.5001H73.9511V51.1711H73.9731C74.3838 50.6211 74.9264 50.3461 75.6011 50.3461C75.9971 50.3461 76.3161 50.4268 76.5581 50.5881C76.8001 50.7494 76.9798 50.9914 77.0971 51.3141H77.1191C77.5884 50.6688 78.1934 50.3461 78.9341 50.3461C79.4914 50.3461 79.9094 50.5074 80.1881 50.8301C80.4741 51.1454 80.6171 51.6001 80.6171 52.1941V56.1101H79.7371V52.4141C79.7371 51.9961 79.6674 51.6771 79.5281 51.4571C79.3888 51.2298 79.1174 51.1161 78.7141 51.1161C78.2814 51.1161 77.9331 51.2554 77.6691 51.5341C77.4124 51.8128 77.2841 52.1721 77.2841 52.6121V56.1101H76.4041V52.4141ZM81.8475 50.5001H82.7275V56.1101H81.8475V50.5001ZM81.7595 48.3551H82.8155V49.4111H81.7595V48.3551ZM85.7447 56.1651C85.29 56.1651 84.9417 56.0551 84.6997 55.8351C84.465 55.6078 84.3477 55.1971 84.3477 54.6031V51.2701H83.5227V50.5001H84.3477V48.6301H85.2277V50.5001H86.3277V51.2701H85.2277V54.6471C85.2277 54.9404 85.2717 55.1384 85.3597 55.2411C85.4477 55.3438 85.6163 55.3951 85.8657 55.3951C85.9903 55.3951 86.1443 55.3841 86.3277 55.3621V56.1101C86.115 56.1468 85.9207 56.1651 85.7447 56.1651ZM88.9888 56.1651C88.5341 56.1651 88.1858 56.0551 87.9438 55.8351C87.7091 55.6078 87.5918 55.1971 87.5918 54.6031V51.2701H86.7668V50.5001H87.5918V48.6301H88.4718V50.5001H89.5718V51.2701H88.4718V54.6471C88.4718 54.9404 88.5158 55.1384 88.6038 55.2411C88.6918 55.3438 88.8605 55.3951 89.1098 55.3951C89.2345 55.3951 89.3885 55.3841 89.5718 55.3621V56.1101C89.3591 56.1468 89.1648 56.1651 88.9888 56.1651ZM92.8078 56.2751C92.2358 56.2751 91.7444 56.1468 91.3338 55.8901C90.9231 55.6334 90.6114 55.2814 90.3988 54.8341C90.1861 54.3794 90.0798 53.8661 90.0798 53.2941C90.0798 52.7001 90.1898 52.1794 90.4098 51.7321C90.6371 51.2848 90.9561 50.9401 91.3668 50.6981C91.7774 50.4561 92.2578 50.3351 92.8078 50.3351C93.3431 50.3351 93.8051 50.4524 94.1938 50.6871C94.5898 50.9144 94.8904 51.2371 95.0958 51.6551C95.3011 52.0658 95.4038 52.5461 95.4038 53.0961C95.4038 53.3308 95.4001 53.4774 95.3928 53.5361H91.0038C91.0184 54.0788 91.1798 54.5444 91.4878 54.9331C91.7958 55.3218 92.2394 55.5161 92.8188 55.5161C93.3028 55.5161 93.6768 55.3951 93.9408 55.1531C94.2048 54.9111 94.3698 54.6544 94.4358 54.3831H95.3268C95.1728 54.9478 94.8831 55.4061 94.4578 55.7581C94.0398 56.1028 93.4898 56.2751 92.8078 56.2751ZM94.4688 52.7661C94.4688 52.4581 94.3991 52.1758 94.2598 51.9191C94.1204 51.6624 93.9188 51.4608 93.6548 51.3141C93.3981 51.1674 93.1011 51.0941 92.7638 51.0941C92.2798 51.0941 91.8728 51.2518 91.5428 51.5671C91.2128 51.8751 91.0331 52.2748 91.0038 52.7661H94.4688ZM96.3709 48.2451H97.2509V56.1101H96.3709V48.2451Z" fill="#1C0B05"/>
</g>
</g>
<g id="bahnhof">
<g id="Frame 17">
<rect width="55.1099" height="13" transform="translate(22.25 63.8801)" fill="#F5F2F1"/>
<path id="Vector_2" d="M22.26 72.32V67.91C22.26 67.5 22.37 67.17 22.58 66.93C22.79 66.69 23.07 66.5 23.42 66.37C23.77 66.24 24.16 66.16 24.61 66.11C25.06 66.06 25.51 66.05 25.97 66.05C26.48 66.05 26.96 66.07 27.41 66.11C27.86 66.15 28.26 66.24 28.59 66.37C28.92 66.5 29.19 66.68 29.38 66.93C29.57 67.18 29.67 67.5 29.67 67.91V72.32C29.67 72.78 29.51 73.16 29.2 73.47C28.89 73.78 28.5 73.94 28.05 73.94L28.75 74.64V74.87H27.82L26.89 73.94H25.03L24.1 74.87H23.17V74.64L23.87 73.94C23.41 73.94 23.03 73.78 22.72 73.47C22.41 73.16 22.25 72.77 22.25 72.32H22.26ZM25.98 66.9901C25.16 66.9901 24.56 67.04 24.18 67.14C23.8 67.24 23.54 67.34 23.4 67.46H28.6C28.48 67.33 28.23 67.2201 27.85 67.1301C27.47 67.0401 26.84 67 25.98 67V66.9901ZM23.19 69.7701H25.51V68.3801H23.19V69.7701ZM28.06 70.7001H23.19H28.76H28.06ZM26.44 69.7701H28.76V68.3801H26.44V69.7701ZM24.35 72.5601C24.55 72.5601 24.72 72.49 24.85 72.36C24.98 72.23 25.05 72.06 25.05 71.86C25.05 71.66 24.98 71.49 24.85 71.36C24.72 71.23 24.55 71.16 24.35 71.16C24.15 71.16 23.98 71.23 23.85 71.36C23.72 71.49 23.65 71.66 23.65 71.86C23.65 72.06 23.72 72.23 23.85 72.36C23.98 72.49 24.15 72.5601 24.35 72.5601ZM27.6 72.5601C27.8 72.5601 27.97 72.49 28.1 72.36C28.23 72.23 28.3 72.06 28.3 71.86C28.3 71.66 28.23 71.49 28.1 71.36C27.97 71.23 27.8 71.16 27.6 71.16C27.4 71.16 27.23 71.23 27.1 71.36C26.97 71.49 26.9 71.66 26.9 71.86C26.9 72.06 26.97 72.23 27.1 72.36C27.23 72.49 27.4 72.5601 27.6 72.5601ZM23.89 73.0201H28.07C28.27 73.0201 28.44 72.95 28.57 72.82C28.7 72.69 28.77 72.52 28.77 72.32V70.7001H23.2V72.32C23.2 72.52 23.27 72.69 23.4 72.82C23.53 72.95 23.7 73.0201 23.9 73.0201H23.89ZM25.98 67.4501H28.6H23.4H25.98Z" fill="#1C0B05"/>
<path id="Bahnhof" d="M38.1739 66.0151H41.3419C42.1412 66.0151 42.7682 66.1948 43.2229 66.5541C43.6849 66.9061 43.9159 67.3865 43.9159 67.9951C43.9159 68.8018 43.5089 69.3445 42.6949 69.6231V69.6451C43.1422 69.7185 43.5089 69.9238 43.7949 70.2611C44.0809 70.5911 44.2239 71.0348 44.2239 71.5921C44.2239 72.3108 43.9855 72.8718 43.5089 73.2751C43.0322 73.6785 42.3832 73.8801 41.5619 73.8801H38.1739V66.0151ZM41.6169 73.0001C42.6655 73.0001 43.1899 72.5308 43.1899 71.5921C43.1899 71.1668 43.0652 70.8258 42.8159 70.5691C42.5739 70.3125 42.2475 70.1841 41.8369 70.1841H39.1639V73.0001H41.6169ZM41.4519 69.3041C41.9799 69.3041 42.3502 69.2015 42.5629 68.9961C42.7755 68.7908 42.8819 68.4938 42.8819 68.1051C42.8819 67.7311 42.7719 67.4378 42.5519 67.2251C42.3319 67.0051 42.0019 66.8951 41.5619 66.8951H39.1639V69.3041H41.4519ZM46.8106 74.0341C46.2459 74.0341 45.7949 73.8875 45.4576 73.5941C45.1276 73.3008 44.9626 72.9158 44.9626 72.4391C44.9626 72.0285 45.0579 71.6985 45.2486 71.4491C45.4392 71.1998 45.7032 71.0091 46.0406 70.8771C46.3779 70.7451 46.8179 70.6315 47.3606 70.5361C47.7272 70.4701 48.0022 70.4078 48.1856 70.3491C48.3762 70.2905 48.5192 70.2135 48.6146 70.1181C48.7099 70.0155 48.7576 69.8761 48.7576 69.7001C48.7576 69.1501 48.3689 68.8751 47.5916 68.8751C47.2396 68.8751 46.9609 68.9118 46.7556 68.9851C46.5576 69.0585 46.4146 69.1795 46.3266 69.3481C46.2386 69.5095 46.1836 69.7295 46.1616 70.0081H45.2376C45.2669 69.4288 45.4759 68.9668 45.8646 68.6221C46.2532 68.2775 46.8399 68.1051 47.6246 68.1051C48.2112 68.1051 48.6879 68.2481 49.0546 68.5341C49.4286 68.8201 49.6156 69.2821 49.6156 69.9201V72.6151C49.6156 72.8425 49.6376 73.0111 49.6816 73.1211C49.7256 73.2238 49.7989 73.2751 49.9016 73.2751L50.0336 73.2641V73.8801C49.8722 73.9168 49.7292 73.9351 49.6046 73.9351C49.3479 73.9351 49.1499 73.8728 49.0106 73.7481C48.8786 73.6161 48.7979 73.3851 48.7686 73.0551H48.7466C48.5559 73.3705 48.2992 73.6125 47.9766 73.7811C47.6539 73.9498 47.2652 74.0341 46.8106 74.0341ZM45.8866 72.3951C45.8866 72.6811 45.9672 72.8975 46.1286 73.0441C46.2899 73.1908 46.5466 73.2641 46.8986 73.2641C47.4559 73.2641 47.9032 73.1358 48.2406 72.8791C48.5852 72.6151 48.7576 72.2265 48.7576 71.7131V70.8221C48.6256 70.9688 48.1856 71.1155 47.4376 71.2621C46.8729 71.3795 46.4732 71.5188 46.2386 71.6801C46.0039 71.8415 45.8866 72.0798 45.8866 72.3951ZM54.7469 70.1841C54.7469 69.7955 54.6479 69.4838 54.4499 69.2491C54.2519 69.0071 53.9439 68.8861 53.5259 68.8861C53.0346 68.8861 52.6349 69.0255 52.3269 69.3041C52.0262 69.5828 51.8759 69.9421 51.8759 70.3821V73.8801H50.9959V66.0151H51.8759V68.9411H51.8979C52.0739 68.7065 52.3159 68.5121 52.6239 68.3581C52.9319 68.1968 53.3059 68.1161 53.7459 68.1161C54.2959 68.1161 54.7469 68.2738 55.0989 68.5891C55.4509 68.8971 55.6269 69.3555 55.6269 69.9641V73.8801H54.7469V70.1841ZM60.6121 70.1841C60.6121 69.7955 60.5131 69.4838 60.3151 69.2491C60.1171 69.0071 59.8091 68.8861 59.3911 68.8861C58.8998 68.8861 58.5001 69.0255 58.1921 69.3041C57.8915 69.5828 57.7411 69.9421 57.7411 70.3821V73.8801H56.8611V68.2701H57.7411V68.9411H57.7631C57.9391 68.7065 58.1811 68.5121 58.4891 68.3581C58.7971 68.1968 59.1711 68.1161 59.6111 68.1161C60.1611 68.1161 60.6121 68.2738 60.9641 68.5891C61.3161 68.8971 61.4921 69.3555 61.4921 69.9641V73.8801H60.6121V70.1841ZM66.4774 70.1841C66.4774 69.7955 66.3784 69.4838 66.1804 69.2491C65.9824 69.0071 65.6744 68.8861 65.2564 68.8861C64.765 68.8861 64.3654 69.0255 64.0574 69.3041C63.7567 69.5828 63.6064 69.9421 63.6064 70.3821V73.8801H62.7264V66.0151H63.6064V68.9411H63.6284C63.8044 68.7065 64.0464 68.5121 64.3544 68.3581C64.6624 68.1968 65.0364 68.1161 65.4764 68.1161C66.0264 68.1161 66.4774 68.2738 66.8294 68.5891C67.1814 68.8971 67.3574 69.3555 67.3574 69.9641V73.8801H66.4774V70.1841ZM71.0336 74.0451C70.4689 74.0451 69.9776 73.9205 69.5596 73.6711C69.1489 73.4218 68.8336 73.0735 68.6136 72.6261C68.3936 72.1715 68.2836 71.6545 68.2836 71.0751C68.2836 70.4958 68.3936 69.9825 68.6136 69.5351C68.8336 69.0805 69.1489 68.7285 69.5596 68.4791C69.9776 68.2298 70.4689 68.1051 71.0336 68.1051C71.5909 68.1051 72.0749 68.2298 72.4856 68.4791C72.9036 68.7285 73.2226 69.0805 73.4426 69.5351C73.6626 69.9825 73.7726 70.4958 73.7726 71.0751C73.7726 71.6545 73.6626 72.1715 73.4426 72.6261C73.2226 73.0735 72.9036 73.4218 72.4856 73.6711C72.0749 73.9205 71.5909 74.0451 71.0336 74.0451ZM69.2076 71.0751C69.2076 71.7131 69.3616 72.2411 69.6696 72.6591C69.9776 73.0698 70.4323 73.2751 71.0336 73.2751C71.6276 73.2751 72.0786 73.0698 72.3866 72.6591C72.6946 72.2411 72.8486 71.7131 72.8486 71.0751C72.8486 70.4371 72.6946 69.9128 72.3866 69.5021C72.0786 69.0841 71.6276 68.8751 71.0336 68.8751C70.4323 68.8751 69.9776 69.0841 69.6696 69.5021C69.3616 69.9128 69.2076 70.4371 69.2076 71.0751ZM74.9705 67.5111C74.9705 66.9098 75.0842 66.4991 75.3115 66.2791C75.5388 66.0591 75.8798 65.9491 76.3345 65.9491C76.4885 65.9491 76.6828 65.9675 76.9175 66.0041V66.7521C76.6975 66.7301 76.5435 66.7191 76.4555 66.7191C76.2135 66.7191 76.0522 66.7705 75.9715 66.8731C75.8908 66.9685 75.8505 67.1665 75.8505 67.4671V68.2701H76.9175V69.0401H75.8505V73.8801H74.9705V69.0401H74.1895V68.2701H74.9705V67.5111Z" fill="#1C0B05"/>
</g>
</g>
<g id="verwaltung">
<g id="Frame 16">
<rect width="70.5" height="13" transform="translate(20.8599 81.6399)" fill="#F5F2F1"/>
<path id="Vector_3" d="M20.8599 92.6399V91.6199H22.9099V89.5699H21.8899V88.5499H22.9698C23.0698 87.9099 23.3599 87.3599 23.8199 86.8899C24.2799 86.4199 24.8399 86.1399 25.4799 86.0399V83.4299H29.0599V85.4799H26.4999V86.0399C27.1399 86.1399 27.6899 86.4299 28.1599 86.8899C28.6299 87.3499 28.9099 87.9099 29.0099 88.5499H30.0898V89.5699H29.0699V91.6199H31.1199V92.6399H20.8799H20.8599ZM23.9299 91.6199H25.4698V89.5699H23.9299V91.6199ZM26.4899 91.6199H28.0298V89.5699H26.4899V91.6199ZM23.9999 88.5499H27.9399C27.8199 88.0999 27.5798 87.7299 27.2098 87.4399C26.8398 87.1499 26.4298 87.0099 25.9698 87.0099C25.5098 87.0099 25.0999 87.1499 24.7299 87.4399C24.3599 87.7299 24.1199 88.0899 23.9999 88.5499Z" fill="#1C0B05"/>
<path id="Verwaltung" d="M37.4479 83.7749H38.5369L40.8029 90.6829H40.8139L43.0579 83.7749H44.0919L41.3419 91.6399H40.2639L37.4479 83.7749ZM46.6164 91.8049C46.0444 91.8049 45.553 91.6766 45.1424 91.4199C44.7317 91.1632 44.42 90.8112 44.2074 90.3639C43.9947 89.9092 43.8884 89.3959 43.8884 88.8239C43.8884 88.2299 43.9984 87.7092 44.2184 87.2619C44.4457 86.8146 44.7647 86.4699 45.1754 86.2279C45.586 85.9859 46.0664 85.8649 46.6164 85.8649C47.1517 85.8649 47.6137 85.9822 48.0024 86.2169C48.3984 86.4442 48.699 86.7669 48.9044 87.1849C49.1097 87.5956 49.2124 88.0759 49.2124 88.6259C49.2124 88.8606 49.2087 89.0072 49.2014 89.0659H44.8124C44.827 89.6086 44.9884 90.0742 45.2964 90.4629C45.6044 90.8516 46.048 91.0459 46.6274 91.0459C47.1114 91.0459 47.4854 90.9249 47.7494 90.6829C48.0134 90.4409 48.1784 90.1842 48.2444 89.9129H49.1354C48.9814 90.4776 48.6917 90.9359 48.2664 91.2879C47.8484 91.6326 47.2984 91.8049 46.6164 91.8049ZM48.2774 88.2959C48.2774 87.9879 48.2077 87.7056 48.0684 87.4489C47.929 87.1922 47.7274 86.9906 47.4634 86.8439C47.2067 86.6972 46.9097 86.6239 46.5724 86.6239C46.0884 86.6239 45.6814 86.7816 45.3514 87.0969C45.0214 87.4049 44.8417 87.8046 44.8124 88.2959H48.2774ZM51.0595 91.6399H50.1795V86.0299H51.0595V87.1409H51.0815C51.2428 86.7376 51.4445 86.4259 51.6865 86.2059C51.9358 85.9859 52.2512 85.8759 52.6325 85.8759C52.8232 85.8759 52.9955 85.8869 53.1495 85.9089V86.7889C53.0175 86.7669 52.8965 86.7559 52.7865 86.7559C52.2732 86.7559 51.8552 86.9356 51.5325 87.2949C51.2172 87.6542 51.0595 88.1052 51.0595 88.6479V91.6399ZM53.3686 86.0299H54.3586L55.6456 90.6499H55.6676L56.8996 86.0299H57.8566L59.0886 90.6499H59.1106L60.4086 86.0299H61.3656L59.5726 91.6399H58.6156L57.3726 87.0859H57.3506L56.1076 91.6399H55.1506L53.3686 86.0299ZM63.5039 91.7939C62.9393 91.7939 62.4883 91.6472 62.1509 91.3539C61.8209 91.0606 61.6559 90.6756 61.6559 90.1989C61.6559 89.7882 61.7513 89.4582 61.9419 89.2089C62.1326 88.9596 62.3966 88.7689 62.7339 88.6369C63.0713 88.5049 63.5113 88.3912 64.0539 88.2959C64.4206 88.2299 64.6956 88.1676 64.8789 88.1089C65.0696 88.0502 65.2126 87.9732 65.3079 87.8779C65.4033 87.7752 65.4509 87.6359 65.4509 87.4599C65.4509 86.9099 65.0623 86.6349 64.2849 86.6349C63.9329 86.6349 63.6543 86.6716 63.4489 86.7449C63.2509 86.8182 63.1079 86.9392 63.0199 87.1079C62.9319 87.2692 62.8769 87.4892 62.8549 87.7679H61.9309C61.9603 87.1886 62.1693 86.7266 62.5579 86.3819C62.9466 86.0372 63.5333 85.8649 64.3179 85.8649C64.9046 85.8649 65.3813 86.0079 65.7479 86.2939C66.1219 86.5799 66.3089 87.0419 66.3089 87.6799V90.3749C66.3089 90.6022 66.3309 90.7709 66.3749 90.8809C66.4189 90.9836 66.4923 91.0349 66.5949 91.0349L66.7269 91.0239V91.6399C66.5656 91.6766 66.4226 91.6949 66.2979 91.6949C66.0413 91.6949 65.8433 91.6326 65.7039 91.5079C65.5719 91.3759 65.4913 91.1449 65.4619 90.8149H65.4399C65.2493 91.1302 64.9926 91.3722 64.6699 91.5409C64.3473 91.7096 63.9586 91.7939 63.5039 91.7939ZM62.5799 90.1549C62.5799 90.4409 62.6606 90.6572 62.8219 90.8039C62.9833 90.9506 63.2399 91.0239 63.5919 91.0239C64.1493 91.0239 64.5966 90.8956 64.9339 90.6389C65.2786 90.3749 65.4509 89.9862 65.4509 89.4729V88.5819C65.3189 88.7286 64.8789 88.8752 64.1309 89.0219C63.5663 89.1392 63.1666 89.2786 62.9319 89.4399C62.6973 89.6012 62.5799 89.8396 62.5799 90.1549ZM67.6893 83.7749H68.5693V91.6399H67.6893V83.7749ZM71.5864 91.6949C71.1318 91.6949 70.7834 91.5849 70.5414 91.3649C70.3068 91.1376 70.1894 90.7269 70.1894 90.1329V86.7999H69.3644V86.0299H70.1894V84.1599H71.0694V86.0299H72.1694V86.7999H71.0694V90.1769C71.0694 90.4702 71.1134 90.6682 71.2014 90.7709C71.2894 90.8736 71.4581 90.9249 71.7074 90.9249C71.8321 90.9249 71.9861 90.9139 72.1694 90.8919V91.6399C71.9568 91.6766 71.7624 91.6949 71.5864 91.6949ZM74.9296 91.7939C74.3796 91.7939 73.9286 91.6399 73.5766 91.3319C73.2246 91.0166 73.0486 90.5546 73.0486 89.9459V86.0299H73.9286V89.7259C73.9286 90.1146 74.0276 90.4299 74.2256 90.6719C74.4236 90.9066 74.7316 91.0239 75.1496 91.0239C75.6409 91.0239 76.0369 90.8846 76.3376 90.6059C76.6456 90.3272 76.7996 89.9679 76.7996 89.5279V86.0299H77.6796V91.6399H76.7996V90.9689H76.7776C76.6016 91.2036 76.3596 91.4016 76.0516 91.5629C75.7436 91.7169 75.3696 91.7939 74.9296 91.7939ZM82.7088 87.9439C82.7088 87.5552 82.6098 87.2436 82.4118 87.0089C82.2138 86.7669 81.9058 86.6459 81.4878 86.6459C80.9965 86.6459 80.5968 86.7852 80.2888 87.0639C79.9882 87.3426 79.8378 87.7019 79.8378 88.1419V91.6399H78.9578V86.0299H79.8378V86.7009H79.8598C80.0358 86.4662 80.2778 86.2719 80.5858 86.1179C80.8938 85.9566 81.2678 85.8759 81.7078 85.8759C82.2578 85.8759 82.7088 86.0336 83.0608 86.3489C83.4128 86.6569 83.5888 87.1152 83.5888 87.7239V91.6399H82.7088V87.9439ZM87.1661 93.6529C86.4107 93.6529 85.8241 93.4916 85.4061 93.1689C84.9881 92.8536 84.7571 92.4246 84.7131 91.8819H85.6371C85.7691 92.5492 86.2787 92.8829 87.1661 92.8829C87.7234 92.8829 88.1451 92.7582 88.4311 92.5089C88.7171 92.2669 88.8601 91.8819 88.8601 91.3539V90.4739H88.8381C88.4347 91.0606 87.8407 91.3539 87.0561 91.3539C86.5794 91.3539 86.1504 91.2512 85.7691 91.0459C85.3951 90.8406 85.0981 90.5326 84.8781 90.1219C84.6581 89.7112 84.5481 89.2089 84.5481 88.6149C84.5481 88.0209 84.6581 87.5186 84.8781 87.1079C85.0981 86.6972 85.3951 86.3892 85.7691 86.1839C86.1504 85.9786 86.5794 85.8759 87.0561 85.8759C87.8114 85.8759 88.4054 86.1582 88.8381 86.7229H88.8601V86.0299H89.7401V91.2659C89.7401 92.0506 89.5127 92.6446 89.0581 93.0479C88.6034 93.4512 87.9727 93.6529 87.1661 93.6529ZM85.4721 88.6149C85.4721 89.1942 85.6151 89.6672 85.9011 90.0339C86.1944 90.4006 86.6161 90.5839 87.1661 90.5839C87.7014 90.5839 88.1157 90.4189 88.4091 90.0889C88.7097 89.7516 88.8601 89.2602 88.8601 88.6149C88.8601 87.9696 88.7097 87.4819 88.4091 87.1519C88.1157 86.8146 87.7014 86.6459 87.1661 86.6459C86.6161 86.6459 86.1944 86.8292 85.9011 87.1959C85.6151 87.5626 85.4721 88.0356 85.4721 88.6149Z" fill="#1C0B05"/>
</g>
</g>
<g id="primarschule">
<g id="Frame 15">
<rect width="78.8599" height="13" transform="translate(20.5 99.4099)" fill="#F5F2F1"/>
<path id="Vector_4" d="M25.98 110.41L22.49 108.52V105.53L20.5 104.43L25.98 101.44L31.46 104.43V108.42H30.46V104.98L29.46 105.53V108.52L25.97 110.41H25.98ZM25.98 106.27L29.39 104.43L25.98 102.59L22.57 104.43L25.98 106.27ZM25.98 109.27L28.47 107.92V106.04L25.98 107.41L23.49 106.04V107.92L25.98 109.27Z" fill="#1C0B05"/>
<path id="Primarschule" d="M38.1739 101.545H41.2979C42.0679 101.545 42.6839 101.732 43.1459 102.106C43.6152 102.473 43.8499 103.048 43.8499 103.833C43.8499 104.618 43.6152 105.197 43.1459 105.571C42.6839 105.938 42.0679 106.121 41.2979 106.121H39.1639V109.41H38.1739V101.545ZM41.3639 105.241C41.8552 105.241 42.2182 105.127 42.4529 104.9C42.6949 104.665 42.8159 104.31 42.8159 103.833C42.8159 103.356 42.6949 103.004 42.4529 102.777C42.2182 102.542 41.8552 102.425 41.3639 102.425H39.1639V105.241H41.3639ZM45.5488 109.41H44.6688V103.8H45.5488V104.911H45.5708C45.7321 104.508 45.9338 104.196 46.1758 103.976C46.4251 103.756 46.7404 103.646 47.1218 103.646C47.3124 103.646 47.4848 103.657 47.6388 103.679V104.559C47.5068 104.537 47.3858 104.526 47.2758 104.526C46.7624 104.526 46.3444 104.706 46.0218 105.065C45.7064 105.424 45.5488 105.875 45.5488 106.418V109.41ZM48.3748 103.8H49.2548V109.41H48.3748V103.8ZM48.2868 101.655H49.3428V102.711H48.2868V101.655ZM53.867 105.714C53.867 105.296 53.7973 104.977 53.658 104.757C53.5187 104.53 53.2473 104.416 52.844 104.416C52.4113 104.416 52.063 104.555 51.799 104.834C51.5423 105.113 51.414 105.472 51.414 105.912V109.41H50.534V103.8H51.414V104.471H51.436C51.8467 103.921 52.3893 103.646 53.064 103.646C53.46 103.646 53.779 103.727 54.021 103.888C54.263 104.049 54.4427 104.291 54.56 104.614H54.582C55.0513 103.969 55.6563 103.646 56.397 103.646C56.9543 103.646 57.3723 103.807 57.651 104.13C57.937 104.445 58.08 104.9 58.08 105.494V109.41H57.2V105.714C57.2 105.296 57.1303 104.977 56.991 104.757C56.8517 104.53 56.5803 104.416 56.177 104.416C55.7443 104.416 55.396 104.555 55.132 104.834C54.8753 105.113 54.747 105.472 54.747 105.912V109.41H53.867V105.714ZM60.8614 109.564C60.2967 109.564 59.8457 109.417 59.5084 109.124C59.1784 108.831 59.0134 108.446 59.0134 107.969C59.0134 107.558 59.1087 107.228 59.2994 106.979C59.49 106.73 59.754 106.539 60.0914 106.407C60.4287 106.275 60.8687 106.161 61.4114 106.066C61.778 106 62.053 105.938 62.2364 105.879C62.427 105.82 62.57 105.743 62.6654 105.648C62.7607 105.545 62.8084 105.406 62.8084 105.23C62.8084 104.68 62.4197 104.405 61.6424 104.405C61.2904 104.405 61.0117 104.442 60.8064 104.515C60.6084 104.588 60.4654 104.709 60.3774 104.878C60.2894 105.039 60.2344 105.259 60.2124 105.538H59.2884C59.3177 104.959 59.5267 104.497 59.9154 104.152C60.304 103.807 60.8907 103.635 61.6754 103.635C62.262 103.635 62.7387 103.778 63.1054 104.064C63.4794 104.35 63.6664 104.812 63.6664 105.45V108.145C63.6664 108.372 63.6884 108.541 63.7324 108.651C63.7764 108.754 63.8497 108.805 63.9524 108.805L64.0844 108.794V109.41C63.923 109.447 63.78 109.465 63.6554 109.465C63.3987 109.465 63.2007 109.403 63.0614 109.278C62.9294 109.146 62.8487 108.915 62.8194 108.585H62.7974C62.6067 108.9 62.35 109.142 62.0274 109.311C61.7047 109.48 61.316 109.564 60.8614 109.564ZM59.9374 107.925C59.9374 108.211 60.018 108.427 60.1794 108.574C60.3407 108.721 60.5974 108.794 60.9494 108.794C61.5067 108.794 61.954 108.666 62.2914 108.409C62.636 108.145 62.8084 107.756 62.8084 107.243V106.352C62.6764 106.499 62.2364 106.645 61.4884 106.792C60.9237 106.909 60.524 107.049 60.2894 107.21C60.0547 107.371 59.9374 107.61 59.9374 107.925ZM65.9267 109.41H65.0467V103.8H65.9267V104.911H65.9487C66.11 104.508 66.3117 104.196 66.5537 103.976C66.803 103.756 67.1184 103.646 67.4997 103.646C67.6904 103.646 67.8627 103.657 68.0167 103.679V104.559C67.8847 104.537 67.7637 104.526 67.6537 104.526C67.1404 104.526 66.7224 104.706 66.3997 105.065C66.0844 105.424 65.9267 105.875 65.9267 106.418V109.41ZM70.7576 109.564C69.9729 109.564 69.3606 109.377 68.9206 109.003C68.4806 108.629 68.2532 108.141 68.2386 107.54H69.1626C69.1846 107.921 69.3202 108.226 69.5696 108.453C69.8189 108.68 70.2149 108.794 70.7576 108.794C71.2489 108.794 71.5936 108.706 71.7916 108.53C71.9896 108.347 72.0886 108.127 72.0886 107.87C72.0886 107.657 72.0299 107.489 71.9126 107.364C71.7952 107.239 71.6522 107.148 71.4836 107.089C71.3222 107.03 71.0986 106.972 70.8126 106.913L70.5926 106.869C70.1452 106.766 69.7786 106.664 69.4926 106.561C69.2139 106.458 68.9719 106.301 68.7666 106.088C68.5612 105.868 68.4586 105.578 68.4586 105.219C68.4586 104.742 68.6382 104.361 68.9976 104.075C69.3642 103.789 69.8666 103.646 70.5046 103.646C71.2012 103.646 71.7439 103.811 72.1326 104.141C72.5286 104.471 72.7486 104.893 72.7926 105.406H71.8686C71.8099 105.12 71.6852 104.885 71.4946 104.702C71.3039 104.511 70.9776 104.416 70.5156 104.416C70.1342 104.416 69.8482 104.486 69.6576 104.625C69.4742 104.764 69.3826 104.951 69.3826 105.186C69.3826 105.362 69.4339 105.505 69.5366 105.615C69.6466 105.718 69.7822 105.798 69.9436 105.857C70.1049 105.908 70.3286 105.963 70.6146 106.022C70.6732 106.029 70.7612 106.048 70.8786 106.077C71.3186 106.18 71.6816 106.286 71.9676 106.396C72.2609 106.506 72.5066 106.678 72.7046 106.913C72.9099 107.14 73.0126 107.448 73.0126 107.837C73.0126 108.372 72.8146 108.794 72.4186 109.102C72.0226 109.41 71.4689 109.564 70.7576 109.564ZM76.3073 109.564C75.7646 109.564 75.2879 109.439 74.8773 109.19C74.4666 108.941 74.1476 108.592 73.9203 108.145C73.7003 107.698 73.5903 107.184 73.5903 106.605C73.5903 106.026 73.7003 105.512 73.9203 105.065C74.1476 104.618 74.4666 104.269 74.8773 104.02C75.2879 103.771 75.7646 103.646 76.3073 103.646C76.7619 103.646 77.1653 103.741 77.5173 103.932C77.8766 104.115 78.1626 104.372 78.3753 104.702C78.5953 105.032 78.7273 105.406 78.7713 105.824H77.8473C77.8179 105.45 77.6786 105.124 77.4293 104.845C77.1873 104.559 76.8133 104.416 76.3073 104.416C75.6913 104.416 75.2366 104.632 74.9433 105.065C74.6573 105.49 74.5143 106.004 74.5143 106.605C74.5143 107.206 74.6573 107.723 74.9433 108.156C75.2366 108.581 75.6913 108.794 76.3073 108.794C76.8206 108.794 77.1983 108.651 77.4403 108.365C77.6823 108.079 77.8179 107.738 77.8473 107.342H78.7713C78.7493 107.767 78.6283 108.149 78.4083 108.486C78.1883 108.823 77.8949 109.087 77.5283 109.278C77.1689 109.469 76.7619 109.564 76.3073 109.564ZM83.4393 105.714C83.4393 105.325 83.3403 105.014 83.1423 104.779C82.9443 104.537 82.6363 104.416 82.2183 104.416C81.727 104.416 81.3273 104.555 81.0193 104.834C80.7186 105.113 80.5683 105.472 80.5683 105.912V109.41H79.6883V101.545H80.5683V104.471H80.5903C80.7663 104.236 81.0083 104.042 81.3163 103.888C81.6243 103.727 81.9983 103.646 82.4383 103.646C82.9883 103.646 83.4393 103.804 83.7913 104.119C84.1433 104.427 84.3193 104.885 84.3193 105.494V109.41H83.4393V105.714ZM87.3905 109.564C86.8405 109.564 86.3895 109.41 86.0375 109.102C85.6855 108.787 85.5095 108.325 85.5095 107.716V103.8H86.3895V107.496C86.3895 107.885 86.4885 108.2 86.6865 108.442C86.8845 108.677 87.1925 108.794 87.6105 108.794C88.1019 108.794 88.4979 108.655 88.7985 108.376C89.1065 108.097 89.2605 107.738 89.2605 107.298V103.8H90.1405V109.41H89.2605V108.739H89.2385C89.0625 108.974 88.8205 109.172 88.5125 109.333C88.2045 109.487 87.8305 109.564 87.3905 109.564ZM91.4188 101.545H92.2988V109.41H91.4188V101.545ZM96.0089 109.575C95.4369 109.575 94.9456 109.447 94.5349 109.19C94.1243 108.933 93.8126 108.581 93.5999 108.134C93.3873 107.679 93.2809 107.166 93.2809 106.594C93.2809 106 93.3909 105.479 93.6109 105.032C93.8383 104.585 94.1573 104.24 94.5679 103.998C94.9786 103.756 95.4589 103.635 96.0089 103.635C96.5443 103.635 97.0063 103.752 97.3949 103.987C97.7909 104.214 98.0916 104.537 98.2969 104.955C98.5023 105.366 98.6049 105.846 98.6049 106.396C98.6049 106.631 98.6013 106.777 98.5939 106.836H94.2049C94.2196 107.379 94.3809 107.844 94.6889 108.233C94.9969 108.622 95.4406 108.816 96.0199 108.816C96.5039 108.816 96.8779 108.695 97.1419 108.453C97.4059 108.211 97.5709 107.954 97.6369 107.683H98.5279C98.3739 108.248 98.0843 108.706 97.6589 109.058C97.2409 109.403 96.6909 109.575 96.0089 109.575ZM97.6699 106.066C97.6699 105.758 97.6003 105.476 97.4609 105.219C97.3216 104.962 97.1199 104.761 96.8559 104.614C96.5993 104.467 96.3023 104.394 95.9649 104.394C95.4809 104.394 95.0739 104.552 94.7439 104.867C94.4139 105.175 94.2343 105.575 94.2049 106.066H97.6699Z" fill="#1C0B05"/>
</g>
</g>
<g id="kirche">
<g id="Frame 14">
<rect width="47.02" height="13" transform="translate(21.3398 117.48)" fill="#F5F2F1"/>
<path id="Vector_5" d="M21.3398 128.48V124.77L23.1999 123.95V122.45L25.5198 121.29V120.59H24.5898V119.66H25.5198V118.73H26.4499V119.66H27.3799V120.59H26.4499V121.29L28.7698 122.45V123.95L30.6299 124.77V128.48H26.4598V126.62C26.4598 126.49 26.4199 126.38 26.3299 126.29C26.2399 126.2 26.1299 126.16 25.9999 126.16C25.8699 126.16 25.7599 126.2 25.6699 126.29C25.5799 126.38 25.5399 126.49 25.5399 126.62V128.48H21.3699H21.3398ZM22.2599 127.55H24.5799V126.6C24.5799 126.21 24.7199 125.87 24.9899 125.6C25.2599 125.33 25.5899 125.19 25.9799 125.19C26.3699 125.19 26.6998 125.33 26.9698 125.6C27.2398 125.87 27.3799 126.21 27.3799 126.6V127.55H29.6999V125.32L27.8398 124.49V122.94L25.9799 121.99L24.1199 122.94V124.49L22.2599 125.32V127.55ZM25.9799 124.54C26.1699 124.54 26.3398 124.47 26.4698 124.34C26.6098 124.2 26.6699 124.04 26.6699 123.85C26.6699 123.66 26.5998 123.49 26.4698 123.36C26.3298 123.22 26.1699 123.16 25.9799 123.16C25.7899 123.16 25.6199 123.23 25.4899 123.36C25.3499 123.5 25.2899 123.66 25.2899 123.85C25.2899 124.04 25.3599 124.21 25.4899 124.34C25.6199 124.47 25.7899 124.54 25.9799 124.54Z" fill="#1C0B05"/>
<path id="Kirche" d="M38.1739 119.615H39.1639V123.773L43.1569 119.615H44.2789L41.1769 122.838L44.5429 127.48H43.3879L40.5389 123.498L39.1639 124.917V127.48H38.1739V119.615ZM45.0233 121.87H45.9033V127.48H45.0233V121.87ZM44.9353 119.725H45.9913V120.781H44.9353V119.725ZM48.0624 127.48H47.1824V121.87H48.0624V122.981H48.0844C48.2458 122.578 48.4474 122.266 48.6894 122.046C48.9388 121.826 49.2541 121.716 49.6354 121.716C49.8261 121.716 49.9984 121.727 50.1524 121.749V122.629C50.0204 122.607 49.8994 122.596 49.7894 122.596C49.2761 122.596 48.8581 122.776 48.5354 123.135C48.2201 123.494 48.0624 123.945 48.0624 124.488V127.48ZM53.0397 127.634C52.497 127.634 52.0203 127.509 51.6097 127.26C51.199 127.011 50.88 126.662 50.6527 126.215C50.4327 125.768 50.3227 125.254 50.3227 124.675C50.3227 124.096 50.4327 123.582 50.6527 123.135C50.88 122.688 51.199 122.339 51.6097 122.09C52.0203 121.841 52.497 121.716 53.0397 121.716C53.4943 121.716 53.8977 121.811 54.2497 122.002C54.609 122.185 54.895 122.442 55.1077 122.772C55.3277 123.102 55.4597 123.476 55.5037 123.894H54.5797C54.5503 123.52 54.411 123.194 54.1617 122.915C53.9197 122.629 53.5457 122.486 53.0397 122.486C52.4237 122.486 51.969 122.702 51.6757 123.135C51.3897 123.56 51.2467 124.074 51.2467 124.675C51.2467 125.276 51.3897 125.793 51.6757 126.226C51.969 126.651 52.4237 126.864 53.0397 126.864C53.553 126.864 53.9307 126.721 54.1727 126.435C54.4147 126.149 54.5503 125.808 54.5797 125.412H55.5037C55.4817 125.837 55.3607 126.219 55.1407 126.556C54.9207 126.893 54.6273 127.157 54.2607 127.348C53.9013 127.539 53.4943 127.634 53.0397 127.634ZM60.1717 123.784C60.1717 123.395 60.0727 123.084 59.8747 122.849C59.6767 122.607 59.3687 122.486 58.9507 122.486C58.4594 122.486 58.0597 122.625 57.7517 122.904C57.451 123.183 57.3007 123.542 57.3007 123.982V127.48H56.4207V119.615H57.3007V122.541H57.3227C57.4987 122.306 57.7407 122.112 58.0487 121.958C58.3567 121.797 58.7307 121.716 59.1707 121.716C59.7207 121.716 60.1717 121.874 60.5237 122.189C60.8757 122.497 61.0517 122.955 61.0517 123.564V127.48H60.1717V123.784ZM64.7169 127.645C64.1449 127.645 63.6536 127.517 63.2429 127.26C62.8323 127.003 62.5206 126.651 62.3079 126.204C62.0953 125.749 61.9889 125.236 61.9889 124.664C61.9889 124.07 62.0989 123.549 62.3189 123.102C62.5463 122.655 62.8653 122.31 63.2759 122.068C63.6866 121.826 64.1669 121.705 64.7169 121.705C65.2523 121.705 65.7143 121.822 66.1029 122.057C66.4989 122.284 66.7996 122.607 67.0049 123.025C67.2103 123.436 67.3129 123.916 67.3129 124.466C67.3129 124.701 67.3093 124.847 67.3019 124.906H62.9129C62.9276 125.449 63.0889 125.914 63.3969 126.303C63.7049 126.692 64.1486 126.886 64.7279 126.886C65.2119 126.886 65.5859 126.765 65.8499 126.523C66.1139 126.281 66.2789 126.024 66.3449 125.753H67.2359C67.0819 126.318 66.7923 126.776 66.3669 127.128C65.9489 127.473 65.3989 127.645 64.7169 127.645ZM66.3779 124.136C66.3779 123.828 66.3083 123.546 66.1689 123.289C66.0296 123.032 65.8279 122.831 65.5639 122.684C65.3073 122.537 65.0103 122.464 64.6729 122.464C64.1889 122.464 63.7819 122.622 63.4519 122.937C63.1219 123.245 62.9423 123.645 62.9129 124.136H66.3779Z" fill="#1C0B05"/>
</g>
</g>
<g id="sport">
<g id="Frame 13">
<rect width="43.3499" height="13" transform="translate(21.01 135.25)" fill="#F5F2F1"/>
<path id="Vector_6" d="M25.15 146.28L25.3 145.58C25.32 145.47 25.38 145.38 25.46 145.31C25.54 145.24 25.64 145.2 25.75 145.18L27.29 145.06C27.4 145.04 27.5 145.06 27.59 145.12C27.68 145.18 27.75 145.26 27.79 145.36L27.99 145.83C28.31 145.64 28.6 145.41 28.86 145.14C29.12 144.87 29.33 144.57 29.51 144.24L29.36 144.17C29.27 144.1 29.2 144.02 29.16 143.93C29.12 143.84 29.11 143.73 29.14 143.63L29.49 142.11C29.51 142.01 29.57 141.93 29.65 141.86C29.73 141.79 29.82 141.75 29.92 141.74C29.88 141.53 29.83 141.33 29.76 141.14C29.69 140.95 29.62 140.76 29.52 140.57C29.45 140.61 29.36 140.63 29.28 140.63C29.2 140.63 29.12 140.6 29.05 140.55L27.73 139.75C27.64 139.69 27.57 139.61 27.53 139.51C27.49 139.41 27.48 139.31 27.51 139.2L27.61 138.78C27.35 138.66 27.09 138.58 26.82 138.52C26.55 138.46 26.27 138.43 25.99 138.43C25.87 138.43 25.75 138.43 25.63 138.45C25.51 138.47 25.39 138.48 25.27 138.51L25.64 139.36C25.68 139.46 25.69 139.56 25.67 139.67C25.65 139.78 25.6 139.87 25.51 139.93L24.34 140.95C24.26 141.02 24.16 141.07 24.05 141.07C23.94 141.07 23.84 141.05 23.75 141L22.6 140.3C22.41 140.62 22.26 140.95 22.16 141.31C22.06 141.67 22 142.04 22 142.41C22 142.54 22.02 142.76 22.05 143.06L23.15 142.96C23.27 142.94 23.37 142.96 23.47 143.02C23.57 143.08 23.63 143.15 23.68 143.26L24.28 144.68C24.32 144.78 24.33 144.88 24.31 144.99C24.29 145.1 24.24 145.19 24.15 145.25L23.68 145.65C23.9 145.82 24.14 145.95 24.4 146.06C24.66 146.17 24.91 146.25 25.18 146.3L25.15 146.28ZM26.05 144.14C25.94 144.16 25.84 144.14 25.75 144.08C25.66 144.02 25.59 143.94 25.55 143.84L24.88 142.3C24.84 142.2 24.83 142.1 24.86 141.99C24.89 141.88 24.95 141.79 25.03 141.73L26.3 140.66C26.37 140.59 26.47 140.54 26.57 140.54C26.67 140.54 26.78 140.56 26.87 140.61L28.26 141.43C28.35 141.49 28.42 141.57 28.47 141.67C28.52 141.77 28.53 141.87 28.51 141.98L28.11 143.6C28.09 143.71 28.04 143.8 27.96 143.87C27.88 143.94 27.79 143.98 27.69 144L26.05 144.15V144.14ZM25.98 147.37C25.29 147.37 24.64 147.24 24.04 146.98C23.44 146.72 22.91 146.36 22.46 145.92C22.01 145.48 21.66 144.94 21.4 144.34C21.14 143.74 21.01 143.09 21.01 142.4C21.01 141.71 21.14 141.06 21.4 140.46C21.66 139.86 22.02 139.33 22.46 138.88C22.9 138.43 23.44 138.08 24.04 137.82C24.64 137.56 25.29 137.43 25.98 137.43C26.67 137.43 27.32 137.56 27.92 137.82C28.52 138.08 29.05 138.44 29.5 138.88C29.95 139.32 30.3 139.86 30.56 140.46C30.82 141.06 30.95 141.71 30.95 142.4C30.95 143.09 30.82 143.74 30.56 144.34C30.3 144.94 29.94 145.47 29.5 145.92C29.06 146.37 28.52 146.72 27.92 146.98C27.32 147.24 26.67 147.37 25.98 147.37Z" fill="#1C0B05"/>
<path id="Sport" d="M41.0779 145.404C40.4252 145.404 39.8459 145.294 39.3399 145.074C38.8339 144.847 38.4305 144.524 38.1299 144.106C37.8365 143.688 37.6715 143.189 37.6349 142.61H38.6689C38.8009 143.893 39.5892 144.535 41.0339 144.535C41.6939 144.535 42.1595 144.41 42.4309 144.161C42.7095 143.904 42.8489 143.552 42.8489 143.105C42.8489 142.768 42.7755 142.507 42.6289 142.324C42.4822 142.141 42.2769 142.001 42.0129 141.906C41.7489 141.803 41.3382 141.682 40.7809 141.543C40.7295 141.536 40.6525 141.517 40.5499 141.488C40.0145 141.356 39.5709 141.22 39.2189 141.081C38.8742 140.942 38.5772 140.729 38.3279 140.443C38.0859 140.157 37.9649 139.779 37.9649 139.31C37.9649 138.672 38.1995 138.166 38.6689 137.792C39.1382 137.418 39.7909 137.231 40.6269 137.231C41.5142 137.231 42.2182 137.447 42.7389 137.88C43.2669 138.313 43.5639 138.925 43.6299 139.717H42.5959C42.5225 139.174 42.3319 138.771 42.0239 138.507C41.7159 138.236 41.2539 138.1 40.6379 138.1C40.0952 138.1 39.6845 138.199 39.4059 138.397C39.1345 138.595 38.9989 138.885 38.9989 139.266C38.9989 139.574 39.0832 139.816 39.2519 139.992C39.4279 140.168 39.6405 140.3 39.8899 140.388C40.1392 140.476 40.4949 140.575 40.9569 140.685C41.6169 140.839 42.1412 140.993 42.5299 141.147C42.9185 141.294 43.2412 141.521 43.4979 141.829C43.7545 142.137 43.8829 142.551 43.8829 143.072C43.8829 143.761 43.6482 144.322 43.1789 144.755C42.7095 145.188 42.0092 145.404 41.0779 145.404ZM47.5241 145.404C46.7541 145.404 46.1675 145.111 45.7641 144.524H45.7421V147.197H44.8621V139.64H45.7421V140.333H45.7641C46.1968 139.768 46.7835 139.486 47.5241 139.486C47.9935 139.486 48.4188 139.607 48.8001 139.849C49.1888 140.084 49.4931 140.425 49.7131 140.872C49.9405 141.319 50.0541 141.844 50.0541 142.445C50.0541 143.046 49.9405 143.571 49.7131 144.018C49.4931 144.465 49.1888 144.81 48.8001 145.052C48.4188 145.287 47.9935 145.404 47.5241 145.404ZM45.7421 142.445C45.7421 143.105 45.8925 143.637 46.1931 144.04C46.5011 144.436 46.9155 144.634 47.4361 144.634C47.8028 144.634 48.1145 144.531 48.3711 144.326C48.6278 144.121 48.8185 143.853 48.9431 143.523C49.0678 143.186 49.1301 142.826 49.1301 142.445C49.1301 142.064 49.0678 141.708 48.9431 141.378C48.8185 141.041 48.6278 140.769 48.3711 140.564C48.1145 140.359 47.8028 140.256 47.4361 140.256C46.9155 140.256 46.5011 140.458 46.1931 140.861C45.8925 141.257 45.7421 141.785 45.7421 142.445ZM53.4701 145.415C52.9055 145.415 52.4141 145.29 51.9961 145.041C51.5855 144.792 51.2701 144.443 51.0501 143.996C50.8301 143.541 50.7201 143.024 50.7201 142.445C50.7201 141.866 50.8301 141.352 51.0501 140.905C51.2701 140.45 51.5855 140.098 51.9961 139.849C52.4141 139.6 52.9055 139.475 53.4701 139.475C54.0275 139.475 54.5115 139.6 54.9221 139.849C55.3401 140.098 55.6591 140.45 55.8791 140.905C56.0991 141.352 56.2091 141.866 56.2091 142.445C56.2091 143.024 56.0991 143.541 55.8791 143.996C55.6591 144.443 55.3401 144.792 54.9221 145.041C54.5115 145.29 54.0275 145.415 53.4701 145.415ZM51.6441 142.445C51.6441 143.083 51.7981 143.611 52.1061 144.029C52.4141 144.44 52.8688 144.645 53.4701 144.645C54.0641 144.645 54.5151 144.44 54.8231 144.029C55.1311 143.611 55.2851 143.083 55.2851 142.445C55.2851 141.807 55.1311 141.283 54.8231 140.872C54.5151 140.454 54.0641 140.245 53.4701 140.245C52.8688 140.245 52.4141 140.454 52.1061 140.872C51.7981 141.283 51.6441 141.807 51.6441 142.445ZM58.0527 145.25H57.1727V139.64H58.0527V140.751H58.0747C58.236 140.348 58.4377 140.036 58.6797 139.816C58.929 139.596 59.2443 139.486 59.6257 139.486C59.8163 139.486 59.9887 139.497 60.1427 139.519V140.399C60.0107 140.377 59.8897 140.366 59.7797 140.366C59.2663 140.366 58.8483 140.546 58.5257 140.905C58.2103 141.264 58.0527 141.715 58.0527 142.258V145.25ZM62.6167 145.305C62.1621 145.305 61.8137 145.195 61.5717 144.975C61.3371 144.748 61.2197 144.337 61.2197 143.743V140.41H60.3947V139.64H61.2197V137.77H62.0997V139.64H63.1997V140.41H62.0997V143.787C62.0997 144.08 62.1437 144.278 62.2317 144.381C62.3197 144.484 62.4884 144.535 62.7377 144.535C62.8624 144.535 63.0164 144.524 63.1997 144.502V145.25C62.9871 145.287 62.7927 145.305 62.6167 145.305Z" fill="#1C0B05"/>
</g>
</g>
<g id="bellavista">
<g id="Frame 12">
<rect width="64.01" height="15.46" transform="translate(19.3501 18)" fill="#F5F2F1"/>
<path id="Bellavista" d="M38.1411 22.595H41.4521C42.2588 22.595 42.8858 22.771 43.3331 23.123C43.7878 23.4676 44.0151 23.9516 44.0151 24.575C44.0151 25.389 43.6081 25.9353 42.7941 26.214V26.236C43.2414 26.3166 43.6081 26.5183 43.8941 26.841C44.1801 27.1636 44.3231 27.6036 44.3231 28.161C44.3231 28.9016 44.0848 29.47 43.6081 29.866C43.1314 30.262 42.4788 30.46 41.6501 30.46H38.1411V22.595ZM41.5621 29.415C42.1048 29.415 42.4898 29.3013 42.7171 29.074C42.9444 28.8393 43.0581 28.5203 43.0581 28.117C43.0581 27.7063 42.9408 27.3873 42.7061 27.16C42.4714 26.9326 42.1451 26.819 41.7271 26.819H39.3511V29.415H41.5621ZM41.4191 25.862C41.8958 25.862 42.2368 25.7703 42.4421 25.587C42.6474 25.3963 42.7501 25.1176 42.7501 24.751C42.7501 24.399 42.6438 24.1276 42.4311 23.937C42.2184 23.739 41.9104 23.64 41.5071 23.64H39.3511V25.862H41.4191ZM47.7665 30.625C47.1872 30.625 46.6885 30.4966 46.2705 30.24C45.8525 29.9833 45.5335 29.6313 45.3135 29.184C45.1009 28.7366 44.9945 28.2233 44.9945 27.644C44.9945 27.0573 45.1045 26.5403 45.3245 26.093C45.5519 25.6456 45.8745 25.2973 46.2925 25.048C46.7105 24.7986 47.2019 24.674 47.7665 24.674C48.6099 24.674 49.2625 24.9306 49.7245 25.444C50.1939 25.9573 50.4285 26.654 50.4285 27.534C50.4285 27.7466 50.4249 27.8823 50.4175 27.941H46.1055C46.1202 28.447 46.2705 28.876 46.5565 29.228C46.8499 29.5726 47.2605 29.745 47.7885 29.745C48.2285 29.745 48.5659 29.6386 48.8005 29.426C49.0425 29.2133 49.1965 28.9823 49.2625 28.733H50.3625C50.2012 29.305 49.9042 29.7633 49.4715 30.108C49.0389 30.4526 48.4705 30.625 47.7665 30.625ZM49.3065 27.094C49.3065 26.6466 49.1599 26.28 48.8665 25.994C48.5805 25.7006 48.2029 25.554 47.7335 25.554C47.2789 25.554 46.9012 25.697 46.6005 25.983C46.2999 26.2616 46.1349 26.632 46.1055 27.094H49.3065ZM51.3391 22.595H52.4171V30.46H51.3391V22.595ZM53.6272 22.595H54.7052V30.46H53.6272V22.595ZM57.4663 30.614C56.909 30.614 56.4616 30.4673 56.1243 30.174C55.7943 29.8806 55.6293 29.492 55.6293 29.008C55.6293 28.6046 55.721 28.282 55.9043 28.04C56.095 27.7906 56.3553 27.6 56.6853 27.468C57.0226 27.3286 57.4516 27.2113 57.9723 27.116C58.3316 27.05 58.603 26.9913 58.7863 26.94C58.9696 26.8813 59.1163 26.8043 59.2263 26.709C59.3363 26.6063 59.3913 26.467 59.3913 26.291C59.3913 25.7923 59.0356 25.543 58.3243 25.543C57.8476 25.543 57.514 25.6236 57.3233 25.785C57.1326 25.9463 57.0226 26.2176 56.9933 26.599H55.8933C55.9226 26.0196 56.139 25.554 56.5423 25.202C56.9456 24.85 57.5543 24.674 58.3683 24.674C58.999 24.674 59.5013 24.828 59.8753 25.136C60.2566 25.4366 60.4473 25.928 60.4473 26.61V29.184C60.4473 29.3966 60.4656 29.5543 60.5023 29.657C60.539 29.7523 60.6086 29.8 60.7113 29.8L60.8433 29.789V30.449C60.66 30.493 60.4766 30.515 60.2933 30.515C60.0146 30.515 59.802 30.4526 59.6553 30.328C59.516 30.196 59.4316 29.976 59.4023 29.668H59.3803C59.197 29.9686 58.944 30.2033 58.6213 30.372C58.2986 30.5333 57.9136 30.614 57.4663 30.614ZM56.7513 28.931C56.7513 29.4736 57.0703 29.745 57.7083 29.745C58.2143 29.745 58.6213 29.6203 58.9293 29.371C59.2373 29.1143 59.3913 28.7476 59.3913 28.271V27.468C59.3106 27.5413 59.1676 27.611 58.9623 27.677C58.7643 27.7356 58.4966 27.8016 58.1593 27.875C57.6533 27.9776 57.2903 28.1096 57.0703 28.271C56.8576 28.425 56.7513 28.645 56.7513 28.931ZM61.027 24.85H62.182L63.656 29.349H63.667L65.119 24.85H66.241L64.239 30.46H63.029L61.027 24.85ZM66.926 24.85H68.004V30.46H66.926V24.85ZM66.86 22.683H68.081V23.849H66.86V22.683ZM71.4251 30.614C70.6038 30.614 69.9695 30.427 69.5221 30.053C69.0821 29.679 68.8548 29.1913 68.8401 28.59H69.9291C69.9511 28.942 70.0795 29.2243 70.3141 29.437C70.5561 29.6423 70.9228 29.745 71.4141 29.745C71.8468 29.745 72.1548 29.668 72.3381 29.514C72.5215 29.3526 72.6131 29.1546 72.6131 28.92C72.6131 28.7 72.5471 28.5313 72.4151 28.414C72.2831 28.2966 72.1401 28.2196 71.9861 28.183C71.8395 28.139 71.5571 28.073 71.1391 27.985C70.7065 27.8823 70.3471 27.776 70.0611 27.666C69.7751 27.556 69.5331 27.391 69.3351 27.171C69.1371 26.951 69.0381 26.6613 69.0381 26.302C69.0381 25.8106 69.2251 25.4183 69.5991 25.125C69.9805 24.8316 70.5048 24.685 71.1721 24.685C71.9055 24.685 72.4701 24.8536 72.8661 25.191C73.2621 25.5283 73.4821 25.9573 73.5261 26.478H72.4371C72.3858 26.2066 72.2685 25.9866 72.0851 25.818C71.9091 25.642 71.6121 25.554 71.1941 25.554C70.8421 25.554 70.5818 25.6163 70.4131 25.741C70.2445 25.8656 70.1601 26.038 70.1601 26.258C70.1601 26.4193 70.2078 26.5476 70.3031 26.643C70.3985 26.7383 70.5195 26.8116 70.6661 26.863C70.8128 26.907 71.0291 26.9583 71.3151 27.017C71.3738 27.0243 71.4618 27.0426 71.5791 27.072C72.0265 27.1746 72.3968 27.2846 72.6901 27.402C72.9835 27.5193 73.2291 27.6953 73.4271 27.93C73.6325 28.1646 73.7351 28.4763 73.7351 28.865C73.7351 29.415 73.5335 29.844 73.1301 30.152C72.7268 30.46 72.1585 30.614 71.4251 30.614ZM76.3688 30.526C75.8701 30.526 75.4961 30.405 75.2468 30.163C75.0048 29.921 74.8838 29.492 74.8838 28.876V25.741H74.0698V24.85H74.8838V23.046H75.9618V24.85H77.0398V25.741H75.9618V28.909C75.9618 29.195 76.0058 29.3893 76.0938 29.492C76.1891 29.5873 76.3541 29.635 76.5888 29.635C76.7281 29.635 76.8821 29.6203 77.0508 29.591V30.46C76.8308 30.504 76.6034 30.526 76.3688 30.526ZM79.4878 30.614C78.9305 30.614 78.4831 30.4673 78.1458 30.174C77.8158 29.8806 77.6508 29.492 77.6508 29.008C77.6508 28.6046 77.7425 28.282 77.9258 28.04C78.1165 27.7906 78.3768 27.6 78.7068 27.468C79.0441 27.3286 79.4731 27.2113 79.9938 27.116C80.3531 27.05 80.6245 26.9913 80.8078 26.94C80.9911 26.8813 81.1378 26.8043 81.2478 26.709C81.3578 26.6063 81.4128 26.467 81.4128 26.291C81.4128 25.7923 81.0571 25.543 80.3458 25.543C79.8691 25.543 79.5355 25.6236 79.3448 25.785C79.1541 25.9463 79.0441 26.2176 79.0148 26.599H77.9148C77.9441 26.0196 78.1605 25.554 78.5638 25.202C78.9671 24.85 79.5758 24.674 80.3898 24.674C81.0205 24.674 81.5228 24.828 81.8968 25.136C82.2781 25.4366 82.4688 25.928 82.4688 26.61V29.184C82.4688 29.3966 82.4871 29.5543 82.5238 29.657C82.5605 29.7523 82.6301 29.8 82.7328 29.8L82.8648 29.789V30.449C82.6815 30.493 82.4981 30.515 82.3148 30.515C82.0361 30.515 81.8235 30.4526 81.6768 30.328C81.5375 30.196 81.4531 29.976 81.4238 29.668H81.4018C81.2185 29.9686 80.9655 30.2033 80.6428 30.372C80.3201 30.5333 79.9351 30.614 79.4878 30.614ZM78.7728 28.931C78.7728 29.4736 79.0918 29.745 79.7298 29.745C80.2358 29.745 80.6428 29.6203 80.9508 29.371C81.2588 29.1143 81.4128 28.7476 81.4128 28.271V27.468C81.3321 27.5413 81.1891 27.611 80.9838 27.677C80.7858 27.7356 80.5181 27.8016 80.1808 27.875C79.6748 27.9776 79.3118 28.1096 79.0918 28.271C78.8791 28.425 78.7728 28.645 78.7728 28.931Z" fill="#1C0B05"/>
<path id="Vector_7" d="M21.0101 31.31H23.5001V26.32H28.4901V31.31H30.9801V23.83L25.9901 20.09L21.0001 23.83V31.31H21.0101ZM19.3501 32.97V22.99L26.0001 18L32.6501 22.99V32.97H26.8301V27.98H25.1701V32.97H19.3501Z" fill="#1C0B05"/>
</g>
</g>
</g>
</g>
</svg>
